<?xml version="1.0" encoding="UTF-8" standalone="no"?>
<!-- Generator: Adobe Illustrator 28.3.0, SVG Export Plug-In . SVG Version: 6.00 Build 0)  -->

<svg
   version="1.1"
   id="Flower"
   x="0px"
   y="0px"
   viewBox="0 0 792 792"
   style="enable-background:new 0 0 792 792;"
   xml:space="preserve"
   sodipodi:docname="logo.svg"
   inkscape:version="1.4.2 (ebf0e940d0, 2025-05-08)"
   inkscape:export-filename="logo.png"
   inkscape:export-xdpi="96"
   inkscape:export-ydpi="96"
   xmlns:inkscape="http://www.inkscape.org/namespaces/inkscape"
   xmlns:sodipodi="http://sodipodi.sourceforge.net/DTD/sodipodi-0.dtd"
   xmlns="http://www.w3.org/2000/svg"
   xmlns:svg="http://www.w3.org/2000/svg"><defs
   id="defs5"><filter
     inkscape:collect="always"
     style="color-interpolation-filters:sRGB"
     id="filter7"
     x="-0.27107748"
     y="-0.23952177"
     width="1.542155"
     height="1.4790435"><feGaussianBlur
       inkscape:collect="always"
       stdDeviation="7.016442"
       id="feGaussianBlur7" /></filter></defs><sodipodi:namedview
   id="namedview5"
   pagecolor="#ffffff"
   bordercolor="#000000"
   borderopacity="0.25"
   inkscape:showpageshadow="2"
   inkscape:pageopacity="0.0"
   inkscape:pagecheckerboard="0"
   inkscape:deskcolor="#d1d1d1"
   inkscape:zoom="0.73232323"
   inkscape:cx="576.93103"
   inkscape:cy="182.97931"
   inkscape:window-width="2560"
   inkscape:window-height="1375"
   inkscape:window-x="2240"
   inkscape:window-y="0"
   inkscape:window-maximized="1"
   inkscape:current-layer="Flower" />
<style
   type="text/css"
   id="style1">
	.st0{fill:#FA2921;}
	.st1{fill:#ED79B5;}
	.st2{fill:#FFB400;}
	.st3{fill:#1E83F7;}
	.st4{fill:#18C249;}
</style>
<g
   id="Flower_00000077325900055813483940000000694823054982625702_"
   style="display:none">
	<path
   class="st0"
   d="m 375.48,267.63 c 38.64,34.21 69.78,70.87 89.82,105.42 34.42,-61.56 57.42,-134.71 57.71,-181.3 0,-0.33 0,-0.63 0,-0.91 0,-68.94 -68.77,-95.77 -128.01,-95.77 -59.24,0 -128.01,26.83 -128.01,95.77 0,0.94 0,2.2 0,3.72 33.02,14.68 72.16,40.91 108.49,73.07 z"
   id="path1" />
	<path
   class="st1"
   d="m 164.7,455.63 c 24.15,-26.87 61.2,-55.99 103.01,-80.61 44.48,-26.18 88.97,-44.47 128.02,-52.84 -47.91,-51.76 -110.37,-96.24 -154.6,-110.91 -0.31,-0.1 -0.6,-0.19 -0.86,-0.28 -65.57,-21.3 -112.34,35.81 -130.64,92.15 -18.3,56.34 -14.04,130.04 51.53,151.34 0.89,0.29 2.09,0.68 3.54,1.15 z"
   id="path2" />
	<path
   class="st2"
   d="M 681.07,302.19 C 662.77,245.85 616,188.74 550.43,210.04 c -0.9,0.29 -2.1,0.68 -3.54,1.15 -3.75,35.93 -16.6,81.27 -35.96,125.76 -20.59,47.32 -45.84,88.27 -72.51,118 69.18,13.72 145.86,12.98 190.26,-1.14 0.31,-0.1 0.6,-0.2 0.86,-0.28 65.57,-21.31 69.83,-95.01 51.53,-151.34 z"
   id="path3" />
	<path
   class="st3"
   d="m 336.54,510.71 c -11.15,-50.39 -14.8,-98.36 -10.7,-138.08 -64.03,29.57 -125.63,75.23 -153.26,112.76 -0.19,0.26 -0.37,0.51 -0.53,0.73 -40.52,55.78 -0.66,117.91 47.27,152.72 47.92,34.82 119.33,53.54 159.86,-2.24 0.56,-0.76 1.3,-1.78 2.19,-3.01 -18.09,-31.27 -34.35,-75.51 -44.83,-122.88 z"
   id="path4" />
	<path
   class="st4"
   d="m 617.57,482.52 c -35.33,7.54 -82.42,9.33 -130.72,4.66 -51.37,-4.96 -98.11,-16.32 -134.63,-32.5 8.33,70.03 32.73,142.73 59.88,180.6 0.19,0.26 0.37,0.51 0.53,0.73 40.52,55.78 111.93,37.06 159.86,2.24 47.92,-34.82 87.79,-96.95 47.27,-152.72 -0.56,-0.76 -1.3,-1.78 -2.19,-3.01 z"
   id="path5" />
</g><g
   id="Flower_00000077325900055813483940000000694823054982625702_-6"
   transform="matrix(1.1094308,0,0,1.2041056,-70.80481,-97.107675)">
	<g
   id="g5"
   transform="rotate(31.824274,409.49498,436.23828)"><path
     class="st2"
     d="M 635.83806,194.7905 C 605.52831,154.81393 466.54478,70.933703 420.01954,106.21055 c 7.55386,-13.514238 74.29554,29.46256 83.17441,53.11148 6.99457,29.78381 9.32741,69.626 6.21642,110.59905 -3.30769,43.57895 -12.11483,83.35869 -25.17875,114.55844 59.154,-8.26821 120.28516,-30.18928 151.87351,-53.83419 0.22017,-0.16623 0.42432,-0.32688 0.61004,-0.4632 46.52246,-35.28485 29.42984,-95.42307 -0.87711,-135.39163 z"
     id="path3-3"
     style="fill:#ffb400;stroke-width:0.846892"
     sodipodi:nodetypes="cccccccc" /><path
     class="st0"
     d="m 414.52946,264.78383 c 31.95031,40.52841 56.08473,82.13592 69.67031,119.69569 44.80552,-54.46867 80.43087,-122.37123 88.99034,-168.16913 0.0586,-0.32475 0.11189,-0.61998 0.16161,-0.89553 12.2433,-67.84413 -50.6687,-106.46074 -108.96701,-116.981376 -58.29832,-10.520638 -130.73998,3.669766 -142.98328,71.513896 -0.16694,0.92505 -0.3907,2.16502 -0.66065,3.66086 29.88804,20.31079 63.7476,53.07484 93.78868,91.17559 z"
     id="path1-7"
     style="fill:#fa2921" /></g>




<path
   class="st1"
   d="m 126.15817,335.79545 c 45.07824,-1.37821 95.82586,-9.47275 155.10461,2.96323 63.83025,13.39083 146.13782,50.61051 196.33231,122.88138 22.46325,-165.37199 -25.34712,-234.41583 -64.27026,-286.07117 -38.92315,-51.65534 -130.40816,-53.06165 -197.03798,-20.98773 -66.62983,32.07393 -129.470558,99.48034 -92.14384,177.0276 0.50585,1.05334 1.18879,2.4727 2.01516,4.18669 z"
   id="path2-5"
   style="fill:#ed79b5;stroke-width:1.24833"
   sodipodi:nodetypes="csczscc" /><path
   style="opacity:0.531612;mix-blend-mode:normal;fill:#0a140f;fill-opacity:1;stroke:none;stroke-width:1.88976;stroke-linecap:round;stroke-linejoin:round;stroke-opacity:0.466395;filter:url(#filter7)"
   d="m 343.7986,356.12764 62.12047,6.48757 -40.05762,-70.30451 z"
   id="path7"
   transform="matrix(1,0,0,1.2538474,0,-78.292548)" /><path
   class="st4"
   d="M 647.79361,533.72615 C 604.12586,522.46442 542.30914,486.55431 493.70935,450.39595 428.54866,401.91625 386.71847,343.02245 365.86145,292.3107 c -43.36798,88.02786 -41.93748,240.15042 -32.7083,297.58155 0.0674,0.3963 0.12917,0.77587 0.18533,1.11077 14.18586,84.88746 104.38725,103.7626 177.32972,91.57041 72.93132,-12.19775 152.0862,-59.38837 137.89476,-144.26466 -0.20212,-1.16099 -0.46046,-2.71272 -0.76935,-4.58262 z"
   id="path5-6"
   style="fill:#18c249;stroke-width:1.24833"
   sodipodi:nodetypes="cscccccc" /><g
   id="g8"
   transform="rotate(-5.2692633,-1.2670452,444.45822)"><path
     class="st3"
     d="m 291.26959,494.56057 c 16.12049,-49.02656 16.52539,-50.48028 37.50917,-96.47 -77.57615,-13.60195 -122.69163,-27.14205 -165.6032,-8.96198 -0.29607,0.12667 -0.57843,0.24984 -0.82829,0.35741 -63.309045,27.29914 -60.72767,101.07104 -37.26651,155.46401 23.44743,54.39647 75.31186,106.93131 138.62951,79.63727 0.86939,-0.36791 2.02625,-0.86759 3.41926,-1.47135 0.39638,-36.12346 8.9842,-82.46797 24.14006,-128.55536 z"
     id="path4-5"
     style="fill:#1e83f7"
     sodipodi:nodetypes="cccccccc" /><path
     style="opacity:0.531612;fill:#085ec0;fill-opacity:1;stroke:none;stroke-width:1.88976;stroke-linecap:round;stroke-linejoin:round;stroke-opacity:0.466395"
     d="m 328.77876,398.09057 c -68.29211,43.59164 -132.95871,95.0996 -177.40671,190.75508 38.49517,42.68251 77.081,54.10594 115.75748,34.27029 2.03943,-64.87899 22.58917,-139.88745 61.64923,-225.02537 z"
     id="path6"
     sodipodi:nodetypes="cccc" /></g><path
   style="opacity:1;fill:#ed79b5;fill-opacity:1;stroke:none;stroke-width:1.88976;stroke-linecap:round;stroke-linejoin:round;stroke-opacity:0.466395"
   d="m 426.59189,388.44339 c 36.38367,36.85328 39.2379,87.33533 46.59259,86.22527 2.74186,1.16312 10.17281,-40.84267 10.02542,-80.47513 z"
   id="path8"
   sodipodi:nodetypes="cccc" /></g>
</svg>
